# xmcd
#
# Track frame offsets: 
#        150
#        16425
#        33300
#        53359
#        67467
#        87460
#        106560
#        123672
#        143768
#        161278
#        179228
#        201470
#        220125
#        242943
#        260981
#        276080
#        290924
#
# Disc length: 4106 seconds
#
# Revision: 0
# Processed by: cddbd v1.5.2PL0 Copyright (c) Steve Scherf et al.
# Submitted via: ExactAudioCopy v1.2
#
DISCID=12100811
DTITLE=Charlie Landsborough - Still Can't Say Goodbye and Once In A Whil
DTITLE=e, CD2
DYEAR=2010
DGENRE=Country
TTITLE0=What'll I Do
TTITLE1=I Don't Know Why I Love You But I Do
TTITLE2=Bewitched
TTITLE3=Me And The Elephant
TTITLE4=Imagine
TTITLE5=Always On My Mind
TTITLE6=Gasoline Alley
TTITLE7=Once In A While
TTITLE8=Fields Of Gold
TTITLE9=If You Could Read My Mind
TTITLE10=I'll Take You Home Again, Kathleen
TTITLE11=Just One More Chance
TTITLE12=Love Me
TTITLE13=Every Time We Say Goodbye
TTITLE14=Once In A While [Radio Edit]
TTITLE15=Further Down The Road [Live]
TTITLE16=No Time At All [Live]
EXTD=
EXTT0=
EXTT1=
EXTT2=
EXTT3=
EXTT4=
EXTT5=
EXTT6=
EXTT7=
EXTT8=
EXTT9=
EXTT10=
EXTT11=
EXTT12=
EXTT13=
EXTT14=
EXTT15=
EXTT16=
PLAYORDER=
